# xmcd
#
# Track frame offsets: 
#        150
#        12644
#        14921
#        39566
#        64123
#        86558
#        105040
#        137313
#        171030
#        184081
#        209636
#        243726
#        252968
#        284145
#        304752
#        328549
#
# Disc length: 4426 seconds
#
# Revision: 0
# Processed by: cddbd v1.5.2PL0 Copyright (c) Steve Scherf et al.
# Submitted via: ExactAudioCopy v0.95b4
#
DISCID=e7114810
DTITLE=Daft Punk - Homework
DYEAR=1996
DGENRE=Electronic
TTITLE0=Daftendirekt
TTITLE1=WDPK 83.7 FM
TTITLE2=Revolution 909
TTITLE3=Da Funk
TTITLE4=Phoenix
TTITLE5=Fresh
TTITLE6=Around The World
TTITLE7=Rollin' and Scratchin'
TTITLE8=Teachers
TTITLE9=High Fidelity
TTITLE10=Rock 'n Roll
TTITLE11=Oh Yeah
TTITLE12=Burnin'
TTITLE13=Indo Silver Club
TTITLE14=Alive
TTITLE15=Funk Ad
EXTD=
EXTT0=
EXTT1=
EXTT2=
EXTT3=
EXTT4=
EXTT5=
EXTT6=
EXTT7=
EXTT8=
EXTT9=
EXTT10=
EXTT11=
EXTT12=
EXTT13=
EXTT14=
EXTT15=
PLAYORDER=
